<svg width="174" height="30" viewBox="0 0 174 30" fill="none" xmlns="http://www.w3.org/2000/svg">
<path d="M15 0L18.3677 10.3647H29.2658L20.4491 16.7705L23.8168 27.1353L15 20.7295L6.18322 27.1353L9.55093 16.7705L0.734152 10.3647H11.6323L15 0Z" fill="#FBB03B"/>
<path d="M51 0L54.3677 10.3647H65.2658L56.4491 16.7705L59.8168 27.1353L51 20.7295L42.1832 27.1353L45.5509 16.7705L36.7342 10.3647H47.6323L51 0Z" fill="#FBB03B"/>
<path d="M87 0L90.3677 10.3647H101.266L92.4491 16.7705L95.8168 27.1353L87 20.7295L78.1832 27.1353L81.5509 16.7705L72.7342 10.3647H83.6323L87 0Z" fill="#FBB03B"/>
<path d="M123 0L126.368 10.3647H137.266L128.449 16.7705L131.817 27.1353L123 20.7295L114.183 27.1353L117.551 16.7705L108.734 10.3647H119.632L123 0Z" fill="#FBB03B"/>
<path d="M159 0L162.368 10.3647H173.266L164.449 16.7705L167.817 27.1353L159 20.7295L150.183 27.1353L153.551 16.7705L144.734 10.3647H155.632L159 0Z" fill="#FBB03B"/>
</svg>
