<svg width="41" height="41" viewBox="0 0 41 41" fill="none" xmlns="http://www.w3.org/2000/svg">
<rect x="0.0205078" y="0.291016" width="40.1546" height="40.1546" rx="20.0773" fill="white"/>
<path d="M22.423 10.7256C21.1268 10.7256 19.8837 11.2405 18.9672 12.157C18.0506 13.0736 17.5357 14.3167 17.5357 15.6128V18.3338H14.9204C14.7893 18.3338 14.6826 18.4395 14.6826 18.5716V22.1644C14.6826 22.2954 14.7883 22.4021 14.9204 22.4021H17.5357V29.7726C17.5357 29.9037 17.6414 30.0104 17.7735 30.0104H21.3663C21.4973 30.0104 21.604 29.9047 21.604 29.7726V22.4021H24.2426C24.3514 22.4021 24.4465 22.3282 24.473 22.2225L25.3711 18.6297C25.38 18.5947 25.3807 18.558 25.3733 18.5227C25.3658 18.4873 25.3504 18.4541 25.3282 18.4255C25.306 18.397 25.2776 18.3739 25.2451 18.358C25.2126 18.3421 25.1769 18.3339 25.1408 18.3338H21.604V15.6128C21.604 15.5053 21.6252 15.3988 21.6663 15.2994C21.7075 15.2001 21.7678 15.1098 21.8439 15.0337C21.9199 14.9577 22.0102 14.8974 22.1096 14.8562C22.2089 14.8151 22.3154 14.7939 22.423 14.7939H25.1704C25.3014 14.7939 25.4081 14.6882 25.4081 14.5561V10.9633C25.4081 10.8323 25.3025 10.7256 25.1704 10.7256H22.423Z" fill="#553AF5"/>
</svg>
