<svg width="28" height="21" viewBox="0 0 28 21" fill="none" xmlns="http://www.w3.org/2000/svg">
<path d="M0.666095 21V4.7701C0.666095 4.06242 0.843013 3.41993 1.19685 2.84262C1.55069 2.24669 2.01626 1.7718 2.59357 1.41796C3.18951 1.06413 3.84131 0.88721 4.54898 0.88721H16.8681C17.5757 0.88721 18.2275 1.06413 18.8235 1.41796C19.4194 1.7718 19.8943 2.24669 20.2481 2.84262C20.602 3.41993 20.7789 4.06242 20.7789 4.7701V21H17.0636V14.2399H4.35344V21H0.666095ZM4.35344 10.5525H17.0636V4.9377C17.0636 4.84459 17.0264 4.7701 16.9519 4.71423C16.8774 4.63974 16.7936 4.60249 16.7005 4.60249H4.68865C4.59554 4.60249 4.51174 4.63974 4.43724 4.71423C4.38137 4.7701 4.35344 4.84459 4.35344 4.9377V10.5525ZM23.5706 21V0.88721H27.23V21H23.5706Z" fill="#8B78F8"/>
</svg>
