<svg width="42" height="41" viewBox="0 0 42 41" fill="none" xmlns="http://www.w3.org/2000/svg">
<rect x="0.96875" y="0.291016" width="40.1546" height="40.1546" rx="20.0773" fill="white"/>
<path d="M22.5641 9.80208C23.3352 9.79912 24.1063 9.80687 24.8772 9.82533L25.0822 9.83273C25.3189 9.84118 25.5524 9.85175 25.8346 9.86443C26.9589 9.91726 27.726 10.0948 28.3992 10.3558C29.0966 10.6242 29.6841 10.9877 30.2716 11.5752C30.8088 12.1032 31.2246 12.7418 31.49 13.4466C31.751 14.1198 31.9286 14.888 31.9814 16.0123C31.9941 16.2934 32.0046 16.528 32.0131 16.7647L32.0194 16.9697C32.0382 17.7402 32.0463 18.511 32.0437 19.2817L32.0448 20.07V21.4543C32.0474 22.2254 32.0393 22.9966 32.0205 23.7674L32.0141 23.9724C32.0057 24.2091 31.9951 24.4427 31.9824 24.7248C31.9296 25.8491 31.75 26.6163 31.49 27.2894C31.2255 27.9951 30.8096 28.6342 30.2716 29.1619C29.7433 29.699 29.1043 30.1148 28.3992 30.3803C27.726 30.6413 26.9589 30.8188 25.8346 30.8716C25.5524 30.8843 25.3189 30.8949 25.0822 30.9033L24.8772 30.9097C24.1063 30.9285 23.3352 30.9366 22.5641 30.934L21.7758 30.935H20.3925C19.6214 30.9377 18.8503 30.9295 18.0794 30.9107L17.8744 30.9044C17.6236 30.8953 17.3728 30.8847 17.1221 30.8727C15.9977 30.8199 15.2306 30.6402 14.5564 30.3803C13.8512 30.1154 13.2125 29.6996 12.685 29.1619C12.1472 28.6339 11.731 27.9948 11.4655 27.2894C11.2045 26.6163 11.027 25.8491 10.9742 24.7248C10.9624 24.4741 10.9518 24.2233 10.9425 23.9724L10.9372 23.7674C10.9177 22.9966 10.9089 22.2254 10.9108 21.4543V19.2817C10.9078 18.511 10.9156 17.7402 10.934 16.9697L10.9414 16.7647C10.9499 16.528 10.9604 16.2934 10.9731 16.0123C11.0259 14.8869 11.2035 14.1208 11.4645 13.4466C11.7301 12.7414 12.1471 12.103 12.686 11.5763C13.2132 11.0382 13.8515 10.6216 14.5564 10.3558C15.2306 10.0948 15.9967 9.91726 17.1221 9.86443L17.8744 9.83273L18.0794 9.82744C18.85 9.80797 19.6207 9.79916 20.3915 9.80102L22.5641 9.80208ZM21.4778 15.0856C20.7777 15.0757 20.0827 15.205 19.433 15.4661C18.7834 15.7271 18.1921 16.1147 17.6936 16.6062C17.195 17.0978 16.7991 17.6835 16.5289 18.3294C16.2587 18.9753 16.1196 19.6684 16.1196 20.3686C16.1196 21.0687 16.2587 21.7618 16.5289 22.4077C16.7991 23.0536 17.195 23.6393 17.6936 24.1309C18.1921 24.6224 18.7834 25.01 19.433 25.2711C20.0827 25.5321 20.7777 25.6614 21.4778 25.6515C22.879 25.6515 24.2229 25.0949 25.2138 24.104C26.2046 23.1132 26.7613 21.7693 26.7613 20.368C26.7613 18.9668 26.2046 17.6229 25.2138 16.632C24.2229 15.6412 22.879 15.0856 21.4778 15.0856ZM21.4778 17.199C21.8989 17.1912 22.3173 17.2675 22.7086 17.4232C23.0999 17.579 23.4563 17.8112 23.7568 18.1062C24.0574 18.4012 24.2962 18.7532 24.4592 19.1416C24.6222 19.5299 24.7062 19.9469 24.7063 20.368C24.7064 20.7892 24.6225 21.2062 24.4596 21.5946C24.2967 21.983 24.0581 22.335 23.7576 22.6302C23.4571 22.9253 23.1009 23.1576 22.7096 23.3135C22.3183 23.4694 21.8999 23.5458 21.4788 23.5381C20.6381 23.5381 19.8317 23.2041 19.2372 22.6096C18.6427 22.0151 18.3087 21.2088 18.3087 20.368C18.3087 19.5273 18.6427 18.7209 19.2372 18.1264C19.8317 17.5319 20.6381 17.1979 21.4788 17.1979L21.4778 17.199ZM27.0255 13.5005C26.6846 13.5142 26.3622 13.6592 26.1258 13.9052C25.8894 14.1512 25.7574 14.4792 25.7574 14.8204C25.7574 15.1615 25.8894 15.4895 26.1258 15.7355C26.3622 15.9815 26.6846 16.1265 27.0255 16.1402C27.3758 16.1402 27.7117 16.001 27.9595 15.7533C28.2072 15.5056 28.3463 15.1696 28.3463 14.8193C28.3463 14.469 28.2072 14.133 27.9595 13.8853C27.7117 13.6376 27.3758 13.4984 27.0255 13.4984V13.5005Z" fill="#553AF5"/>
</svg>
