<svg width="67" height="68" viewBox="0 0 67 68" fill="none" xmlns="http://www.w3.org/2000/svg">
<path d="M55.2062 33.6447C55.0101 21.4263 44.9728 11.7061 32.7544 11.9022C20.536 12.0983 10.8158 22.1356 11.0119 34.354C11.208 46.5724 21.2452 56.2926 33.4636 56.0965C45.6821 55.9004 55.4023 45.8632 55.2062 33.6447ZM13.6115 34.3123C13.4384 23.5237 22.0075 14.675 32.7961 14.5019C43.5847 14.3287 52.4334 22.8978 52.6065 33.6864C52.7797 44.4751 44.2105 53.3237 33.4219 53.4968C22.6333 53.67 13.7847 45.1009 13.6115 34.3123Z" fill="#434346"/>
<path d="M35.4921 44.7528L24.5304 34.1374L35.1458 23.1756L33.2969 21.3851L20.8908 34.1958L33.7016 46.6018L35.4921 44.7528Z" fill="#434346"/>
<path d="M22.6895 32.8667L22.7312 35.4664L44.8283 35.1117L44.7866 32.5121L22.6895 32.8667Z" fill="#434346"/>
</svg>
