<svg width="67" height="68" viewBox="0 0 67 68" fill="none" xmlns="http://www.w3.org/2000/svg">
<path d="M11.8846 33.6447C12.0807 21.4263 22.118 11.7061 34.3364 11.9022C46.5549 12.0983 56.2751 22.1356 56.079 34.354C55.8829 46.5724 45.8456 56.2926 33.6272 56.0965C21.4087 55.9004 11.6886 45.8632 11.8846 33.6447ZM53.4793 34.3123C53.6524 23.5237 45.0833 14.675 34.2947 14.5019C23.5061 14.3287 14.6575 22.8978 14.4843 33.6864C14.3112 44.4751 22.8803 53.3237 33.6689 53.4968C44.4575 53.67 53.3062 45.1009 53.4793 34.3123Z" fill="#553AF5"/>
<path d="M31.5987 44.7528L42.5605 34.1374L31.945 23.1756L33.794 21.3851L46.2 34.1958L33.3893 46.6018L31.5987 44.7528Z" fill="#553AF5"/>
<path d="M44.4014 32.8667L44.3596 35.4664L22.2625 35.1117L22.3042 32.5121L44.4014 32.8667Z" fill="#553AF5"/>
</svg>
