<svg width="42" height="41" viewBox="0 0 42 41" fill="none" xmlns="http://www.w3.org/2000/svg">
<rect x="0.916992" y="0.291016" width="40.1546" height="40.1546" rx="20.0773" fill="white"/>
<g clip-path="url(#clip0_848_406)">
<path fill-rule="evenodd" clip-rule="evenodd" d="M29.4496 12.3683C29.7107 12.2584 29.9965 12.2205 30.2773 12.2585C30.5581 12.2965 30.8235 12.4091 31.0459 12.5846C31.2684 12.76 31.4398 12.9918 31.5423 13.256C31.6447 13.5201 31.6745 13.8069 31.6285 14.0865L29.2319 28.6235C28.9994 30.0257 27.4609 30.8299 26.1749 30.1314C25.0992 29.5471 23.5014 28.6467 22.0643 27.7073C21.3458 27.2371 19.1446 25.7313 19.4152 24.6598C19.6476 23.7437 23.3461 20.3009 25.4595 18.2541C26.289 17.4499 25.9107 16.986 24.9311 17.7257C22.4976 19.5623 18.5931 22.3551 17.3018 23.1413C16.1626 23.8345 15.5688 23.9529 14.8587 23.8345C13.5632 23.619 12.3617 23.285 11.3811 22.8782C10.056 22.3287 10.1204 20.507 11.38 19.9765L29.4496 12.3683Z" fill="#553AF5"/>
</g>
<defs>
<clipPath id="clip0_848_406">
<rect width="25.3608" height="25.3608" fill="white" transform="translate(8.55176 7.6875)"/>
</clipPath>
</defs>
</svg>
